<svg xmlns="http://www.w3.org/2000/svg" viewBox="341 512 169.062 169.062">
  <g id="instagram-logo" transform="translate(341 512)">
    <path id="Tracé_2" data-name="Tracé 2" d="M122.406,0H46.654A46.708,46.708,0,0,0,0,46.655v75.752a46.707,46.707,0,0,0,46.654,46.655h75.752a46.708,46.708,0,0,0,46.656-46.655V46.655A46.708,46.708,0,0,0,122.406,0Zm31.657,122.407a31.691,31.691,0,0,1-31.656,31.655H46.654A31.69,31.69,0,0,1,15,122.407V46.655A31.691,31.691,0,0,1,46.654,15h75.752a31.692,31.692,0,0,1,31.656,31.655v75.752Z"/>
    <path id="Tracé_3" data-name="Tracé 3" d="M84.531,40.97a43.562,43.562,0,1,0,43.563,43.563A43.612,43.612,0,0,0,84.531,40.97Zm0,72.123a28.562,28.562,0,1,1,28.563-28.561A28.595,28.595,0,0,1,84.531,113.093Z"/>
    <path id="Tracé_4" data-name="Tracé 4" d="M129.921,28.251a10.994,10.994,0,1,0,7.78,3.22A11.043,11.043,0,0,0,129.921,28.251Z"/>
  </g>
</svg>
